<svg height="512pt" viewBox="0 -36 512.00013 512" width="512pt" xmlns="http://www.w3.org/2000/svg"><path d="m446.800781 388.105469c-34.800781 34.5-80.402343 51.902343-126 51.902343-6.601562 0-13.199219-.300781-19.800781-1.199218-38.699219-4.203125-76.199219-21.300782-105.898438-50.703125-56.699218-56.699219-56.699218-148.800781 0-205.5 27.902344-27.898438 68.398438-38.398438 105.898438-31.800781 23.402344 3.902343 45.601562 14.703124 62.703125 31.800781 38.398437 38.402343 38.398437 100.800781 0 139.199219-17.101563 17.101562-40.203125 24.902343-62.703125 23.699218-19.199219-.898437-38.101562-9-52.800781-23.699218-26.699219-26.699219-26.699219-70.199219 0-96.898438 14.402343-14.398438 34.203125-19.5 52.800781-15.300781 10.5 2.101562 20.402344 7.203125 28.800781 15.300781l-21.300781 21.300781c-2.402344-2.402343-4.800781-4.203125-7.5-5.101562-10.199219-5.097657-23.101562-3.300781-31.5 5.101562-15 15-15 39.296875 0 54.296875 8.699219 8.703125 19.800781 13.5 31.5 14.402344 15 1.199219 30.601562-3.601562 41.398438-14.402344 12.902343-12.898437 20.101562-30 20.101562-48.296875 0-18.300781-7.199219-35.703125-20.101562-48.601562-11.398438-11.398438-26.097657-19.199219-41.398438-22.5-29.398438-7.199219-62.402344.300781-84.601562 22.5-45 45-45 118.199219 0 163.199219 23.699218 23.699218 53.699218 37.800781 84.601562 41.699218 44.097656 6 90.601562-7.796875 124.5-41.699218 75.234375-75.234376 75.234375-191.464844 0-266.699219-34.800781-34.800781-78-57.300781-124.5-66-29.699219-5.699219-60.601562-5.699219-91.199219.300781-80.398437 15.601562-148.300781 70.800781-182.199219 150.898438l-27.601562-11.699219c37.800781-89.398438 113.5-150.898438 204.101562-168.597657 32.398438-6.300781 65.097657-6.601562 96.898438-1.199218 54.601562 9 105.601562 34.796875 145.800781 75 86.933594 86.929687 86.933594 222.363281 0 309.296875zm0 0" fill="#5275c1"/><g fill="#47568c"><path d="m308.5 246.207031c-2.402344-2.402343-4.800781-4.203125-7.5-5.101562v-31.5c10.5 2.101562 20.398438 7.199219 28.800781 15.300781zm0 0"/><path d="m363.699219 321.804688c-17.097657 17.101562-40.199219 24.902343-62.699219 23.699218v-30.597656c15 1.199219 30.601562-3.601562 41.398438-14.402344 12.902343-12.898437 20.101562-30 20.101562-48.296875 0-18.300781-7.199219-35.703125-20.101562-48.601562-11.398438-11.398438-26.097657-19.199219-41.398438-22.5v-30.300781c23.402344 3.902343 45.601562 14.699218 62.699219 31.800781 38.402343 38.402343 38.402343 100.800781 0 139.199219zm0 0"/><path d="m446.800781 388.105469c-34.800781 34.5-80.402343 51.902343-126 51.902343-6.601562 0-13.199219-.300781-19.800781-1.199218v-30.300782c44.101562 6 90.601562-7.800781 124.503906-41.699218 75.230469-75.234375 75.230469-191.46875 0-266.703125-34.804687-34.800781-78.003906-57.300781-124.503906-66v-30.296875c54.601562 9 105.601562 34.796875 145.800781 75 86.933594 86.929687 86.933594 222.363281 0 309.296875zm0 0"/></g></svg>